# xmcd CD database file
#
# Track frame offsets:
#	150
#	16902
#	35427
#	53067
#	71455
#	90742
#	108352
#	130212
#	147032
#	163345
#	181735
#	202490
#
# Disc length: 2921 seconds
#
# Revision: 3
# Processed by: cddbd v1.5.1PL2 Copyright (c) Steve Scherf et al.
# Submitted via: CDex 1.51
#
DISCID=a60b670c
DTITLE=Christina Aguilera - Just Be Free
DYEAR=1900
DGENRE=Pop
TTITLE0=Just Be Free
TTITLE1=By Your Side
TTITLE2=Move It (Dance Remix)
TTITLE3=Our Day Will Come
TTITLE4=Believe Me
TTITLE5=Make Me Happy
TTITLE6=Dream A Dream
TTITLE7=Move It
TTITLE8=The Way You Talk To Me
TTITLE9=Running Out Of Time
TTITLE10=Believe Me (Dance Mix)
TTITLE11=Just Be Free (Spanish)
EXTD=
EXTT0=
EXTT1=
EXTT2=
EXTT3=
EXTT4=
EXTT5=
EXTT6=
EXTT7=
EXTT8=
EXTT9=
EXTT10=
EXTT11=
PLAYORDER=
